<svg xmlns="http://www.w3.org/2000/svg" xmlns:xlink="http://www.w3.org/1999/xlink" width="980" height="680" viewBox="0 0 980 680">
  <defs>
    <filter id="a" width="113.3%" height="120%" x="-6.7%" y="-10%" filterUnits="objectBoundingBox">
      <feMorphology in="SourceAlpha" operator="dilate" radius="2.5" result="shadowSpreadOuter1"/>
      <feOffset in="shadowSpreadOuter1" result="shadowOffsetOuter1"/>
      <feGaussianBlur in="shadowOffsetOuter1" result="shadowBlurOuter1" stdDeviation="17.5"/>
      <feColorMatrix in="shadowBlurOuter1" values="0 0 0 0 0 0 0 0 0 0 0 0 0 0 0 0 0 0 0.5 0"/>
    </filter>
    <rect id="b" width="900" height="600" x="0" y="0" rx="80"/>
  </defs>
  <g fill="none" fill-rule="evenodd">
    <g transform="translate(40 40)">
      <use xlink:href="#b" fill="#000" filter="url(#a)"/>
      <use xlink:href="#b" fill="#FFB3C7"/>
    </g>
    <g fill="#FFF" fill-rule="nonzero">
      <path d="M669.197 392.626 456.263 95.531c-78.482 56.486-132.387 140.854-150.768 235.755l363.702 61.34Zm-379.192-56.693a393.246 393.246 0 0 1 163.78-256.099c3.2-2.272 7.744-1.549 10.016 1.653l227.082 316.922c2.272 3.201 1.549 7.642-1.756 9.914a6.653 6.653 0 0 1-5.37 1.136l-387.97-65.368c-3.923-.62-6.505-4.234-5.885-8.158h.103Z"/>
      <path d="M479.188 128.06c-2.169 2.168-4.337 4.44-6.403 6.815-.722.826-3.407 3.717-3.304 3.614l-3.305 3.718c-11.669 12.701-19.93 18.588-27.881 18.69-36.247.62-53.802 23.442-52.872 54.009 0 2.168.206 4.027.413 6.712.31 2.272.413 4.544.413 6.816-.207 7.538-5.886 16.419-27.779 39.757-26.642 28.398-27.365 61.443-11.772 82.406 2.375 3.201 6.815 3.821 10.017 1.55 3.2-2.273 3.924-6.61 1.652-9.811v-.103c-11.67-15.594-11.05-41.1 10.74-64.335 24.164-25.713 31.29-36.763 31.599-49.051 0-2.788-.103-5.577-.516-8.468-.207-1.962-.31-3.82-.414-5.783-.722-23.235 11.256-38.931 38.622-39.344 13.321-.207 24.06-7.848 38.415-23.338 1.032-1.136 2.065-2.272 3.408-3.821l3.2-3.614c2.48-2.789 4.235-4.647 5.887-6.196 2.788-2.685 2.788-7.126 0-9.914l-.103-.103c-2.789-2.788-7.332-2.788-10.224 0l.207-.207Zm-16.006 237.82c12.701-28.914 46.573-42.132 75.487-29.327 17.039 7.538 29.43 22.925 33.148 41.203.413 2.169.723 4.44.826 6.609a7.19 7.19 0 0 0 7.745 6.61 7.133 7.133 0 0 0 6.61-7.54c-.207-2.788-.517-5.576-1.033-8.26-7.745-38.829-45.644-64.025-84.472-56.28-22.925 4.543-42.132 20.033-51.53 41.41a7.049 7.049 0 0 0 3.718 9.293h.103c3.615 1.549 7.849-.103 9.5-3.718h-.102Zm-24.474-64.128c-20.447-3.924-41.513 2.066-56.796 16.213-2.892 2.582-2.995 7.022-.414 9.914l.104.103c2.788 2.891 7.228 2.995 10.223.31 11.876-10.946 28.295-15.697 44.198-12.599 3.924.723 7.641-1.755 8.468-5.576a7.046 7.046 0 0 0-5.68-8.261l-.103-.104Zm98.928-24.06c6.816 19.517 22.616 34.697 42.443 40.583 3.82 1.136 7.848-.93 8.984-4.75 1.136-3.718-.93-7.745-4.75-8.881-15.49-4.647-27.78-16.316-33.046-31.6-1.342-3.717-5.37-5.68-9.087-4.44-3.718 1.24-5.783 5.267-4.544 8.984v.103Z"/>
      <path d="M474.231 291.839c-28.501-.413-51.22-23.751-50.807-52.253.413-28.5 23.751-51.22 52.253-50.806 28.191.413 50.807 23.338 50.807 51.53-.207 28.707-23.545 51.735-52.253 51.529Zm0-14.25c20.653-.31 37.073-17.246 36.763-37.9-.31-20.652-17.246-37.072-37.899-36.762-20.446.31-36.762 16.936-36.762 37.279.103 20.756 17.142 37.485 37.898 37.279v.103ZM134.904 484.545c25.92 0 41.1 13.218 41.1 35.833.62 13.632-7.332 26.23-20.033 31.6l25.506 48.225h-26.332l-20.963-40.17c-16.007 5.782-19.62 11.255-19.62 25.093v15.077H90.81V484.545h44.094Zm-.516 21.79h-19.827v39.55a61.712 61.712 0 0 1 17.142-7.951l4.957-1.653c10.946-3.614 15.696-8.467 15.696-16.212 0-8.881-6.299-13.735-17.968-13.735ZM249.53 528.02v-7.745h21.789v79.928h-21.79v-7.745c-6.195 6.402-14.767 9.81-23.647 9.397-23.029 0-41.616-18.691-41.616-41.616 0-23.028 18.587-41.616 41.616-41.616 8.88-.31 17.452 3.098 23.648 9.397Zm-22.512 11.566c-11.153.31-20.034 9.5-20.034 20.653 0 11.347 9.31 20.568 20.616 20.653h.657c11.359-.31 20.343-9.913 20.033-21.273-.31-11.359-9.913-20.343-21.272-20.033ZM310.147 559.413v-19.517c5.576 5.473 13.218 8.364 20.962 7.951v-21.48c-10.946.62-20.343-7.744-20.962-18.69v-13.218h-22.512v66.09c-1.136 20.756 14.663 38.518 35.42 39.757h8.674v-21.17c-10.12 1.756-19.62-4.956-21.376-15.076-.31-1.55-.31-3.098-.206-4.647ZM420.847 556.005c0 1.24 0 2.479-.103 3.718l-.103-.104c0 1.86 0 3.718-.31 5.577-18.898-.103-37.795 2.065-56.176 6.609 3.924 6.712 11.255 10.74 19 10.43 7.952 0 15.697-3.305 21.273-8.881L416.2 588.74c-8.674 8.985-20.653 13.941-33.045 13.735-23.028.826-42.442-17.246-43.268-40.274v-2.065c-.516-22.719 17.452-41.513 40.17-41.926h1.653c21.272-.413 38.724 16.522 39.137 37.795Zm-39.86-17.658c-9.914-.104-18.278 7.435-19.208 17.348a152.338 152.338 0 0 1 36.04-5.576c-2.168-7.332-9.19-12.185-16.832-11.772ZM479.606 518.52c-9.398-.413-18.382 3.407-24.578 10.43v-8.572H433.24v79.928h22.512V558.38c-.62-10.017 7.126-18.69 17.142-19.207 10.017-.62 18.691 7.125 19.208 17.142V600.409h22.512v-46.056c1.239-18.485-12.805-34.388-31.187-35.627h-3.614l-.206-.206ZM588.241 600.306l-23.957-32.529-10.12 10.12v22.512h-22.512V484.752h22.512v67.432l30.566-31.702h27.572l-32.735 33.045 34.904 46.882h-26.23z"/>
      <path d="M677.876 528.123v-7.745h21.789v79.928h-21.789v-7.745c-6.196 6.403-14.767 9.81-23.648 9.397-23.028 0-41.616-18.69-41.616-41.616 0-23.028 18.588-41.616 41.616-41.616 8.881-.31 17.452 3.098 23.648 9.397Zm-22.512 11.566c-11.153.31-20.034 9.5-20.034 20.653 0 11.347 9.31 20.569 20.617 20.654h.656c11.36-.31 20.344-9.914 20.034-21.273-.31-11.36-9.914-20.344-21.273-20.034ZM773.397 520.378v42.752c.62 9.604-6.712 17.762-16.316 18.382-9.604.62-17.762-6.712-18.381-16.316V520.378h-22.512v46.883c-1.033 18.175 12.908 33.871 31.186 34.8h3.408c8.88.414 17.348-3.2 23.338-9.706v7.951h21.789v-79.928h-22.512ZM857.971 505.818v-21.17h-3.304c-20.756-1.755-38.931 13.632-40.687 34.285-.103 1.755-.206 3.51 0 5.37v76.003h22.512v-33.355c.207-10.843 9.088-19.517 20.034-19.414h1.032v-21.479c-7.848-.413-15.386 2.478-20.963 7.952v-8.572c-.826-10.223 6.816-19.104 17.04-19.93 1.548-.103 3.097 0 4.646.207l-.31.103ZM875.733 601.649c8.261 0 15.077-6.713 15.077-15.077a15.029 15.029 0 0 0-15.077-15.077c-8.261 0-15.077 6.712-15.077 15.077 0 8.261 6.713 14.973 15.077 15.077Z"/>
    </g>
  </g>
</svg>