<?xml version="1.0" encoding="UTF-8" standalone="no"?><!DOCTYPE svg PUBLIC "-//W3C//DTD SVG 1.1//EN" "http://www.w3.org/Graphics/SVG/1.1/DTD/svg11.dtd"><svg width="100%" height="100%" viewBox="0 0 4267 1267" version="1.1" xmlns="http://www.w3.org/2000/svg" xmlns:xlink="http://www.w3.org/1999/xlink" xml:space="preserve" xmlns:serif="http://www.serif.com/" style="fill-rule:evenodd;clip-rule:evenodd;stroke-linejoin:round;stroke-miterlimit:2;"><path id="path69" d="M937.71,260.666c-0.69,-6.205 -6.206,-8.963 -10.343,-9.653c-4.137,-0.69 -86.879,-1.379 -86.879,-1.379c-0,-0 -69.642,-67.573 -76.537,-74.468c-6.895,-6.895 -19.996,-4.827 -25.512,-3.448c0,0 -13.101,4.138 -35.165,11.033c-3.448,-11.722 -8.964,-26.202 -16.549,-40.682c-24.822,-47.576 -60.677,-72.399 -104.806,-72.399c-2.759,-0 -6.206,-0 -8.964,0.689c-1.379,-1.379 -2.758,-2.758 -4.137,-4.826c-19.307,-20.686 -43.44,-30.339 -72.4,-29.649c-56.54,1.379 -112.391,42.06 -158.589,115.149c-32.407,51.024 -56.54,115.149 -63.435,164.795c-64.815,19.996 -110.323,33.786 -111.013,34.476c-32.407,10.342 -33.786,11.032 -37.923,42.06c-3.448,22.754 -88.948,685.381 -88.948,685.381l717.788,124.113l310.972,-77.226c0,-0 -126.871,-858.45 -127.56,-863.966Zm-270.291,-66.883c-16.549,4.827 -35.166,11.032 -55.851,17.238c-0.69,-28.27 -4.137,-68.262 -17.238,-102.738c43.439,8.274 64.125,56.54 73.089,85.5Zm-93.085,28.96c-37.924,11.722 -78.605,24.133 -119.976,37.234c11.722,-44.129 33.786,-88.259 60.677,-117.218c10.343,-11.033 24.133,-22.754 40.682,-29.65c15.859,32.408 18.617,78.606 18.617,109.634Zm-77.226,-148.936c13.101,-0 24.133,2.758 33.786,8.964c-15.169,7.584 -30.339,19.306 -44.129,34.476c-35.855,38.613 -63.436,97.911 -74.468,155.831c-34.476,10.342 -67.573,20.685 -98.601,30.338c20.686,-91.016 96.533,-226.851 183.412,-229.609Z" style="fill:#95bf47;fill-rule:nonzero;"/><path id="path71" d="M927.367,251.013c-4.137,-0.69 -86.879,-1.379 -86.879,-1.379c-0,-0 -69.642,-67.573 -76.537,-74.468c-2.758,-2.758 -6.205,-4.137 -9.653,-4.137l-0,1030.83l310.972,-77.226c0,-0 -126.871,-857.76 -127.56,-863.966c-1.379,-6.205 -6.206,-8.963 -10.343,-9.653Z" style="fill:#5e8e3e;fill-rule:nonzero;"/><path id="path73" d="M581.919,410.981l-35.855,135.146c-0,-0 -39.992,-18.617 -88.259,-15.17c-70.33,4.137 -71.02,48.266 -70.33,59.988c4.137,60.678 162.726,73.779 171.689,215.13c6.896,111.702 -59.298,187.549 -154.452,193.754c-114.459,6.895 -177.206,-59.988 -177.206,-59.988l24.134,-102.738c-0,0 63.435,47.577 113.77,44.819c33.097,-2.069 44.819,-28.96 43.44,-48.267c-4.827,-78.605 -134.456,-74.467 -142.731,-203.407c-6.895,-108.944 64.815,-219.267 222.715,-229.61c62.056,-5.516 93.085,10.343 93.085,10.343Z" style="fill:#fff;fill-rule:nonzero;"/><path id="path75" d="M1486.57,699.2c-35.855,-19.307 -54.472,-35.855 -54.472,-58.609c-0,-28.96 25.512,-47.577 66.194,-47.577c46.887,-0 88.258,19.306 88.258,19.306l33.097,-100.669c-0,-0 -30.339,-23.444 -119.287,-23.444c-124.113,0 -210.303,71.02 -210.303,171c0,56.541 39.992,99.981 93.775,131.009c43.439,24.823 58.609,42.06 58.609,68.262c-0,26.891 -21.375,48.266 -62.057,48.266c-59.988,0 -116.529,-31.028 -116.529,-31.028l-35.165,100.67c0,-0 52.403,35.165 139.972,35.165c127.561,0 219.267,-62.746 219.267,-175.827c0.689,-61.367 -45.508,-104.807 -101.359,-136.524Zm508.864,-212.372c-62.746,0 -112.392,29.649 -150.315,75.157l-2.069,-0.689l54.472,-285.46l-142.04,-0l-137.904,726.062l142.041,-0l47.576,-248.227c18.617,-93.774 66.884,-151.693 112.392,-151.693c31.718,-0 44.129,21.375 44.129,52.403c-0,19.306 -2.069,43.439 -6.206,62.746l-53.782,284.081l142.041,0l55.85,-293.734c6.206,-31.029 10.343,-68.263 10.343,-92.396c0,-79.294 -42.75,-128.25 -116.528,-128.25Zm437.843,0c-171,0 -284.081,154.452 -284.081,326.831c0,110.323 68.262,198.582 195.823,198.582c167.553,-0 281.323,-150.315 281.323,-326.832c-0.689,-101.359 -60.677,-198.581 -193.065,-198.581Zm-70.33,416.469c-48.267,-0 -68.952,-41.371 -68.952,-92.396c-0,-81.363 42.06,-214.44 119.286,-214.44c50.335,0 66.884,43.44 66.884,85.501c-0,87.568 -42.061,221.335 -117.218,221.335Zm626.082,-416.469c-95.843,0 -150.315,84.121 -150.315,84.121l-2.069,0l8.275,-76.536l-125.493,-0c-6.205,51.714 -17.238,129.629 -28.959,188.238l-98.601,519.896l142.04,0l39.303,-210.302l2.758,-0c-0,-0 28.96,18.617 83.431,18.617c166.864,-0 275.807,-171.001 275.807,-344.07c0.69,-94.464 -42.06,-179.964 -146.177,-179.964Zm-135.835,418.537c-37.234,0 -58.609,-20.685 -58.609,-20.685l23.443,-133.077c16.549,-88.258 62.746,-147.557 112.392,-147.557c43.439,0 56.54,39.992 56.54,78.605c0,91.706 -54.472,222.714 -133.766,222.714Zm485.42,-621.945c-45.508,0 -81.363,35.855 -81.363,82.742c0,42.061 26.891,71.021 66.883,71.021l2.069,-0c44.129,-0 82.742,-29.649 83.432,-82.742c-0,-41.371 -27.581,-71.021 -71.021,-71.021Zm-198.581,718.478l142.041,-0l96.532,-503.348l-143.419,-0l-95.154,503.348Zm599.881,-504.727l-98.602,-0l4.827,-23.444c8.274,-48.266 37.234,-91.706 84.121,-91.706c25.512,0 45.508,6.896 45.508,6.896l27.581,-111.013c0,0 -24.823,-12.411 -77.226,-12.411c-50.335,-0 -100.669,14.48 -139.282,47.577c-48.267,41.371 -71.021,100.669 -82.743,160.657l-4.137,23.444l-66.193,-0l-20.686,106.875l66.194,0l-75.158,397.852l142.041,-0l75.157,-397.852l97.912,0l20.686,-106.875Zm342,1.379c0,-0 -88.948,224.093 -128.94,346.138l-2.068,-0c-2.758,-39.303 -35.165,-346.138 -35.165,-346.138l-148.936,-0l85.5,462.666c2.068,10.343 0.689,16.549 -2.758,23.444c-16.549,31.718 -44.129,62.746 -77.226,85.5c-26.891,19.307 -56.541,31.718 -80.674,39.992l39.303,120.666c28.96,-6.206 88.258,-29.65 139.282,-77.226c64.815,-60.678 124.803,-154.452 186.17,-282.013l173.759,-373.029l-148.247,-0Z" style="fill:#fff;fill-rule:nonzero;"/></svg>